HIERARCHY
ROOT Hips
{
	OFFSET 0 0 0
	CHANNELS 6 Xposition Yposition Zposition Yrotation Xrotation Zrotation
	JOINT Spine
	{
		OFFSET -0 8.21101 -2.61726
		CHANNELS 3 Yrotation Xrotation Zrotation
		JOINT Spine1
		{
			OFFSET -0 8.47943 0
			CHANNELS 3 Yrotation Xrotation Zrotation
			JOINT Spine2
			{
				OFFSET -0 8.47943 0
				CHANNELS 3 Yrotation Xrotation Zrotation
				JOINT Spine3
				{
					OFFSET -0 8.47943 0
					CHANNELS 3 Yrotation Xrotation Zrotation
					JOINT Neck
					{
						OFFSET -0 19.6274 1.3685
						CHANNELS 3 Yrotation Xrotation Zrotation
						JOINT Head
						{
							OFFSET -0 10.2638 0
							CHANNELS 3 Yrotation Xrotation Zrotation
							End Site
							{
								OFFSET 0 15 0
							}
						}
					}
					JOINT LeftShoulder
					{
						OFFSET 1.71063 7.40232 3.42126
						CHANNELS 3 Yrotation Xrotation Zrotation
						JOINT LeftArm
						{
							OFFSET 17.4021 0 0
							CHANNELS 3 Yrotation Xrotation Zrotation
							JOINT LeftForeArm
							{
								OFFSET 24.3987 0 0
								CHANNELS 3 Yrotation Xrotation Zrotation
								JOINT LeftHand
								{
									OFFSET 21.1442 0 0
									CHANNELS 3 Yrotation Xrotation Zrotation
									End Site
									{
										OFFSET 15 0 0
									}
								}
							}
						}
					}
					JOINT RightShoulder
					{
						OFFSET -1.71063 7.40232 3.42126
						CHANNELS 3 Yrotation Xrotation Zrotation
						JOINT RightArm
						{
							OFFSET -17.4021 0 0
							CHANNELS 3 Yrotation Xrotation Zrotation
							JOINT RightForeArm
							{
								OFFSET -24.3987 0 0
								CHANNELS 3 Yrotation Xrotation Zrotation
								JOINT RightHand
								{
									OFFSET -21.1442 0 0
									CHANNELS 3 Yrotation Xrotation Zrotation
									End Site
									{
										OFFSET -15 0 0
									}
								}
							}
						}
					}
				}
			}
		}
	}
	JOINT LeftUpLeg
	{
		OFFSET 10.2638 -3.42126 0
		CHANNELS 3 Yrotation Xrotation Zrotation
		JOINT LeftLeg
		{
			OFFSET -0 -35.5366 2.39488
			CHANNELS 3 Yrotation Xrotation Zrotation
			JOINT LeftFoot
			{
				OFFSET -0 -41.0686 -2.39488
				CHANNELS 3 Yrotation Xrotation Zrotation
				JOINT LeftToeBase
				{
					OFFSET -0 -10.8328 15.9103
					CHANNELS 3 Yrotation Xrotation Zrotation
					End Site
					{
						OFFSET 0 0 5
					}
				}
			}
		}
	}
	JOINT RightUpLeg
	{
		OFFSET -10.2638 -3.42126 0
		CHANNELS 3 Yrotation Xrotation Zrotation
		JOINT RightLeg
		{
			OFFSET -0 -35.5366 2.39488
			CHANNELS 3 Yrotation Xrotation Zrotation
			JOINT RightFoot
			{
				OFFSET -0 -41.0686 -2.39488
				CHANNELS 3 Yrotation Xrotation Zrotation
				JOINT RightToeBase
				{
					OFFSET -0 -10.8328 15.9103
					CHANNELS 3 Yrotation Xrotation Zrotation
					End Site
					{
						OFFSET 0 0 5
					}
				}
			}
		}
	}
}
MOTION
Frames: 10
Frame Time: 0.00833333
0 90.320639 0 0 0 0 0 0 0 0 0 0 0 0 0 0 0 0 0 0 0 0 0 0 0 0 0 0 0 0 0 0 0 0 0 0 0 0 0 0 0 0 0 0 0 0 0 0 0 0 0 0 0 0 0 0 0 0 0 0 0 0 0 0 0 0 0 0 0 0 0 0
-132.732874 89.203021 -211.813403 26.635185 7.121454 -1.488450 -2.655674 -3.478954 -1.329723 -1.556415 -3.280906 -0.030871 0.649746 -2.869700 1.649023 1.597142 -2.751618 2.921811 -0.176634 9.731210 2.731359 0.177439 -11.790448 -4.026509 8.646246 3.148234 -0.335282 -33.222623 6.365795 -83.328977 -17.931777 6.398094 2.300108 -15.868966 1.477210 -0.699873 -8.494350 1.204793 1.595101 13.526771 13.365193 79.192877 25.418349 30.516765 1.263380 4.142511 1.402086 -11.177393 11.658911 -10.696450 -0.816807 0.000000 13.384657 0.000000 2.448406 -5.070940 -1.289822 0.000000 -6.909690 0.000000 -13.437298 -8.210577 3.950091 0.000000 9.609274 0.000000 0.512308 -2.536053 -1.010082 0.000000 -8.430816 0.000000
-132.732190 89.203967 -211.821021 26.637837 7.113623 -1.491820 -2.635358 -3.463336 -1.311875 -1.537643 -3.281306 -0.023048 0.625747 -2.865395 1.648764 1.575465 -2.759587 2.900085 -0.151882 9.754075 2.722107 0.190223 -11.844294 -4.049034 8.643411 3.122789 -0.359803 -33.202667 6.411302 -83.319661 -17.983128 6.369538 2.299958 -15.829114 1.442249 -0.659492 -8.489277 1.184998 1.596422 13.528624 13.390630 79.190114 25.413209 30.518095 1.276026 4.155241 1.310043 -11.326789 11.641842 -10.701687 -0.809594 0.000000 13.401911 0.000000 2.450536 -5.074714 -1.347970 0.000000 -6.863525 0.000000 -13.419616 -8.220582 3.946090 0.000000 9.638627 0.000000 0.494116 -2.550962 -0.984973 0.000000 -8.370052 0.000000
-132.734338 89.203296 -211.815942 26.645550 7.114753 -1.475625 -2.648786 -3.470472 -1.309866 -1.550559 -3.284222 -0.036471 0.637099 -2.874723 1.623708 1.576804 -2.760180 2.916527 -0.155712 9.688505 2.700084 0.181507 -11.710076 -4.015700 8.677174 3.115803 -0.366557 -33.190459 6.426641 -83.294107 -18.018117 6.338119 2.250119 -15.796134 1.469408 -0.613104 -8.485137 1.226797 1.609812 13.577669 13.400853 79.204140 25.386010 30.444526 1.201424 4.138614 1.348119 -11.269395 11.672659 -10.705526 -0.824357 0.000000 13.418355 0.000000 2.416560 -5.083361 -1.337978 0.000000 -6.880503 0.000000 -13.429826 -8.203536 3.936871 0.000000 9.605987 0.000000 0.485541 -2.562564 -1.009672 0.000000 -8.385988 0.000000
-132.735303 89.198236 -211.823389 26.657672 7.115216 -1.471106 -2.638669 -3.460048 -1.294527 -1.539268 -3.300943 -0.036683 0.620551 -2.866599 1.610167 1.561298 -2.760025 2.895780 -0.155604 9.753360 2.729063 0.186129 -11.793583 -4.053839 8.672476 3.124066 -0.351666 -33.187230 6.404486 -83.308779 -18.001079 6.352156 2.287128 -15.845902 1.372489 -0.636232 -8.477908 1.229519 1.591351 13.558685 13.386472 79.221782 25.376176 30.417986 1.221897 4.123437 1.369419 -11.250931 11.688722 -10.710194 -0.831626 0.000000 13.416193 0.000000 2.393510 -5.073587 -1.352798 0.000000 -6.896400 0.000000 -13.424990 -8.201692 3.932949 0.000000 9.586881 0.000000 0.469801 -2.556214 -1.037073 0.000000 -8.400117 0.000000
-132.735046 89.201111 -211.824805 26.668021 7.115200 -1.478918 -2.625231 -3.475871 -1.284927 -1.527743 -3.276590 -0.031339 0.609546 -2.862913 1.611313 1.548787 -2.776495 2.893598 -0.148067 9.685279 2.717953 0.185435 -11.677242 -4.085167 8.699725 3.112614 -0.383680 -33.242915 6.400458 -83.288861 -17.992514 6.314528 2.265460 -15.824592 1.202663 -0.609097 -8.485575 1.233186 1.602869 13.563605 13.422564 79.185921 25.404218 30.380479 1.241129 4.117622 1.338497 -11.347060 11.687460 -10.707913 -0.827728 0.000000 13.405818 0.000000 2.389188 -5.079891 -1.332268 0.000000 -6.904048 0.000000 -13.429887 -8.206758 3.938332 0.000000 9.601393 0.000000 0.461745 -2.557112 -1.000279 0.000000 -8.392522 0.000000
-132.734875 89.204279 -211.824951 26.671255 7.110812 -1.477062 -2.624619 -3.458706 -1.273177 -1.526419 -3.295789 -0.035078 0.613224 -2.874221 1.596669 1.546547 -2.773050 2.899280 -0.130323 9.719183 2.707041 0.193828 -11.729014 -4.075352 8.695626 3.102415 -0.399021 -33.173729 6.424353 -83.287536 -18.012298 6.378873 2.271735 -15.862967 1.195716 -0.581497 -8.501967 1.229786 1.623070 13.626521 13.483307 79.180763 25.390110 30.309868 1.166015 4.151227 1.400267 -11.262750 11.686155 -10.713143 -0.831399 0.000000 13.425207 0.000000 2.388743 -5.077496 -1.309340 0.000000 -6.883102 0.000000 -13.439033 -8.205551 3.936102 0.000000 9.609288 0.000000 0.475759 -2.535698 -1.003055 0.000000 -8.425406 0.000000
-132.736084 89.203882 -211.830298 26.686050 7.111473 -1.455259 -2.630712 -3.465185 -1.268460 -1.531632 -3.292231 -0.046566 0.626723 -2.876725 1.570860 1.556808 -2.769366 2.891378 -0.137308 9.657995 2.737777 0.189609 -11.622883 -4.095538 8.674553 3.092877 -0.389389 -33.222648 6.429446 -83.294790 -18.036395 6.254973 2.270947 -15.833456 1.211480 -0.525805 -8.517719 1.223601 1.640034 13.586300 13.495083 79.157375 25.392401 30.291448 1.205982 4.184452 1.449514 -11.300683 11.743885 -10.730104 -0.855266 0.000000 13.454404 0.000000 2.311729 -5.066859 -1.337101 0.000000 -6.890231 0.000000 -13.423352 -8.195466 3.917312 0.000000 9.568827 0.000000 0.440048 -2.532770 -1.069493 0.000000 -8.413838 0.000000
-132.737854 89.205579 -211.829883 26.692829 7.103275 -1.448761 -2.632219 -3.460679 -1.248626 -1.529089 -3.292325 -0.058080 0.643820 -2.902822 1.534285 1.568725 -2.733414 2.888869 -0.138554 9.596563 2.770595 0.189433 -11.540249 -4.116459 8.657537 3.039953 -0.369898 -33.102980 6.448981 -83.315496 -18.070826 6.314251 2.282272 -15.825370 1.245951 -0.645796 -8.534056 1.235239 1.673587 13.493101 13.505459 79.103458 25.472749 30.345978 1.282624 4.144952 1.329265 -11.387819 11.715739 -10.743587 -0.853726 0.000000 13.488571 0.000000 2.333035 -5.044114 -1.384487 0.000000 -6.900481 0.000000 -13.412184 -8.193932 3.908399 0.000000 9.581314 0.000000 0.422063 -2.549884 -1.027522 0.000000 -8.382640 0.000000
-132.740637 89.207385 -211.836426 26.712488 7.101548 -1.454176 -2.619611 -3.489118 -1.252153 -1.521189 -3.280656 -0.052726 0.628361 -2.848253 1.548276 1.552878 -2.754814 2.886634 -0.131134 9.583966 2.765916 0.193190 -11.539978 -4.130068 8.665196 3.020901 -0.399922 -33.107236 6.429950 -83.310189 -18.036213 6.334042 2.290013 -15.866289 1.185204 -0.609728 -8.529084 1.230500 1.682127 13.595270 13.554928 79.099520 25.472737 30.219296 1.212633 4.092737 1.323771 -11.421904 11.701049 -10.741522 -0.846551 0.000000 13.472963 0.000000 2.311023 -5.040471 -1.368299 0.000000 -6.903191 0.000000 -13.424692 -8.200614 3.914948 0.000000 9.593273 0.000000 0.415889 -2.528118 -1.032623 0.000000 -8.421744 0.000000
